<?xml version="1.0" encoding="UTF-8" standalone="no"?>
<!-- Generator: Adobe Illustrator 21.1.0, SVG Export Plug-In . SVG Version: 6.00 Build 0)  -->

<svg
   xmlns:dc="http://purl.org/dc/elements/1.1/"
   xmlns:cc="http://creativecommons.org/ns#"
   xmlns:rdf="http://www.w3.org/1999/02/22-rdf-syntax-ns#"
   xmlns:svg="http://www.w3.org/2000/svg"
   xmlns="http://www.w3.org/2000/svg"
   xmlns:sodipodi="http://sodipodi.sourceforge.net/DTD/sodipodi-0.dtd"
   xmlns:inkscape="http://www.inkscape.org/namespaces/inkscape"
   version="1.1"
   id="Layer_1"
   x="0px"
   y="0px"
   viewBox="0 0 144 144"
   style="enable-background:new 0 0 144 144;"
   xml:space="preserve"
   sodipodi:docname="automation-data.svg"
   inkscape:version="0.92.3 (unknown)"><metadata
   id="metadata91"><rdf:RDF><cc:Work
       rdf:about=""><dc:format>image/svg+xml</dc:format><dc:type
         rdf:resource="http://purl.org/dc/dcmitype/StillImage" /></cc:Work></rdf:RDF></metadata><defs
   id="defs89" /><sodipodi:namedview
   pagecolor="#ffffff"
   bordercolor="#666666"
   borderopacity="1"
   objecttolerance="10"
   gridtolerance="10"
   guidetolerance="10"
   inkscape:pageopacity="0"
   inkscape:pageshadow="2"
   inkscape:window-width="640"
   inkscape:window-height="480"
   id="namedview87"
   showgrid="false"
   inkscape:zoom="1.6388889"
   inkscape:cx="72"
   inkscape:cy="72"
   inkscape:window-x="0"
   inkscape:window-y="0"
   inkscape:window-maximized="0"
   inkscape:current-layer="Layer_1" />
<style
   type="text/css"
   id="style2">
	.st0{fill:#7ED257;}
	.st1{fill:#242424;}
	.st2{fill:#FFFFFF;}
	.st3{fill:none;stroke:#242424;stroke-width:3;stroke-miterlimit:10;}
	.st4{fill:none;stroke:#242424;stroke-width:3;stroke-linecap:square;stroke-miterlimit:10;}
</style>
<title
   id="title4">ad</title>
<path
   class="st0"
   d="M94.5,94.5C82,107,60.7,106,49.6,94.9C42.9,88.1,42,67,54.5,54.5s34.4-10.9,40.4-4.9C106,60.7,107,82,94.5,94.5  z"
   id="path6"
   style="fill:#ff0000" />
<path
   class="st1"
   d="M72,43c16,0,29,13,29,29s-13,29-29,29S43,88,43,72S56,43,72,43 M72,40c-17.7,0-32,14.3-32,32s14.3,32,32,32  s32-14.3,32-32S89.7,40,72,40z"
   id="path8" />
<path
   class="st2"
   d="M63.4,79.4c-3.2-1.7-6.3-3.5-9.2-5.6c-0.5-0.3-1-0.7-1.5-1c0-0.1,0-0.2,0-0.3v-0.3c0,0,0.1-0.2,0.4-0.4  c3-2.1,6.4-4.2,10.1-6.3c-0.2,0.3-0.5,0.5-0.7,0.7c-0.2,0.1-1.1,0.7-2.6,1.7c-1.7,1.1-3,1.9-3.8,2.4c-1.6,1-2,1.2-2,2.1  c0,0.9,0,0.9,3,2.7c1.6,1,2.7,1.7,3.6,2.2c0.6,0.3,1.2,0.7,1.8,1.1C62.8,78.6,63.1,79,63.4,79.4z"
   id="path10" />
<path
   class="st1"
   d="M64,63.5c-0.5,0.1-1,0.3-1.4,0.5c-3.8,2.1-7.3,4.3-10.4,6.5c-0.6,0.3-1,1-1.1,1.7v0.3c0,0.4,0.1,0.9,0.3,1.2  c0.6,0.5,1.2,1,1.8,1.3c6.3,4.1,9.9,6.2,10.9,6.2c0.5,0,0.8-0.5,0.8-1.6c-0.1-1-0.8-2-1.7-2.5c-0.6-0.4-1.3-0.9-1.9-1.2  c-0.9-0.5-2.1-1.2-3.6-2.2c-1.5-1-2.3-1.4-2.3-1.5c0.4-0.3,0.8-0.5,1.3-0.8c0.8-0.5,2.1-1.3,3.9-2.4c1.8-1.1,2.6-1.7,2.7-1.7  c0.8-0.5,1.4-1.3,1.5-2.3C64.8,64,64.6,63.5,64,63.5L64,63.5z"
   id="path12" />
<path
   class="st2"
   d="M68,83.3c0.6-1.8,2.8-7.4,9.6-23.3c0.1-0.2,0.2-0.3,0.3-0.5l0,0c-0.3,0.7-0.5,1.2-0.6,1.5  c-0.1,0.2-0.1,0.3-0.1,0.4l-0.6,1.5c-0.4,1-0.7,1.7-0.9,2.1c-0.1,0.3-0.2,0.5-0.2,0.5l0-0.1c-0.1,0.1-0.3,0.7-3.2,7.9  c-2.6,6.4-3.3,8.2-3.5,8.6C68.6,82.4,68.3,82.8,68,83.3z"
   id="path14" />
<path
   class="st1"
   d="M78,57.9c-0.8,0-1.4,0.5-1.8,1.5C69.6,74.8,66.3,83,66.3,84v0.2c0,0.4,0.5,0.6,1.4,0.6h0.6  c0.6,0,1.2-0.8,1.9-2.3c0.2-0.6,1.4-3.4,3.5-8.6c2.1-5.2,3.2-7.8,3.2-7.8c0,0,0.1-0.2,0.2-0.6c0.1-0.4,0.4-1.1,0.8-2l0.6-1.5  c0-0.1,0.1-0.3,0.2-0.5c0.1-0.2,0.3-0.7,0.5-1.3c0.2-0.4,0.4-0.9,0.4-1.4v-0.3C79.6,58.1,79.1,57.9,78,57.9L78,57.9z"
   id="path16" />
<path
   class="st2"
   d="M82.5,79.2c0.2-0.3,0.5-0.5,0.8-0.7c0.1-0.1,0.7-0.5,3.9-2.4c4.5-2.7,4.5-2.7,4.5-3.6c0-0.9,0-0.9-4.5-3.7  c-3.3-2.1-3.9-2.5-4-2.6c-0.2-0.2-0.4-0.4-0.6-0.6l0.1,0.1c3.4,1.9,6.8,4,9.9,6.2c0.2,0.1,0.3,0.4,0.3,0.6c0,0.2,0,0.4-0.4,0.6  C89.1,75.3,85.8,77.4,82.5,79.2z"
   id="path18" />
<path
   class="st1"
   d="M81.8,63.4c-0.6,0-0.9,0.5-0.9,1.4c0,1,0.6,1.9,1.4,2.5c0.2,0.2,1.6,1.1,4.2,2.7c2.6,1.6,3.8,2.4,3.8,2.5  c0,0-1.3,0.8-3.8,2.4c-2.5,1.5-3.9,2.4-4.1,2.5c-1,0.8-1.6,1.6-1.6,2.3v0.3c0,0.9,0.3,1.4,0.8,1.4c0.4-0.1,0.8-0.2,1.1-0.4  c3.4-1.9,7-4.1,10.7-6.5c0.7-0.4,1.1-1.1,1.1-1.9c0-0.7-0.3-1.4-0.9-1.8c-3.2-2.3-6.6-4.4-10.1-6.3C82.9,63.9,82.4,63.6,81.8,63.4z"
   id="path20" />
<ellipse
   class="st3"
   cx="72"
   cy="5.4"
   rx="11.4"
   ry="3.9"
   id="ellipse22" />
<path
   class="st3"
   d="M83.4,20.8c0,2.2-5.1,3.9-11.4,3.9s-11.4-1.8-11.4-3.9"
   id="path24" />
<line
   class="st3"
   x1="60.6"
   y1="20.8"
   x2="60.6"
   y2="5.4"
   id="line26" />
<line
   class="st3"
   x1="83.4"
   y1="20.8"
   x2="83.4"
   y2="5.4"
   id="line28" />
<path
   class="st3"
   d="M83.4,13c0,2.2-5.1,3.9-11.4,3.9S60.6,15.2,60.6,13"
   id="path30" />
<ellipse
   class="st3"
   cx="12.9"
   cy="64.5"
   rx="11.4"
   ry="3.9"
   id="ellipse32" />
<path
   class="st3"
   d="M24.2,79.8c0,2.2-5.1,3.9-11.4,3.9S1.5,82,1.5,79.8"
   id="path34" />
<line
   class="st3"
   x1="1.5"
   y1="79.8"
   x2="1.5"
   y2="64.5"
   id="line36" />
<line
   class="st3"
   x1="24.2"
   y1="79.8"
   x2="24.2"
   y2="64.5"
   id="line38" />
<path
   class="st3"
   d="M24.2,72.1c0,2.2-5.1,3.9-11.4,3.9S1.5,74.2,1.5,72.1"
   id="path40" />
<ellipse
   class="st3"
   cx="72"
   cy="123.2"
   rx="11.4"
   ry="3.9"
   id="ellipse42" />
<path
   class="st3"
   d="M83.4,138.6c0,2.2-5.1,3.9-11.4,3.9s-11.4-1.8-11.4-3.9"
   id="path44" />
<line
   class="st3"
   x1="60.6"
   y1="138.6"
   x2="60.6"
   y2="123.2"
   id="line46" />
<line
   class="st3"
   x1="83.4"
   y1="138.6"
   x2="83.4"
   y2="123.2"
   id="line48" />
<path
   class="st3"
   d="M83.4,130.8c0,2.2-5.1,3.9-11.4,3.9s-11.4-1.8-11.4-3.9"
   id="path50" />
<ellipse
   class="st3"
   cx="131.1"
   cy="64.5"
   rx="11.4"
   ry="3.9"
   id="ellipse52" />
<path
   class="st3"
   d="M142.5,79.8c0,2.2-5.1,3.9-11.4,3.9s-11.4-1.8-11.4-3.9"
   id="path54" />
<line
   class="st3"
   x1="119.8"
   y1="79.8"
   x2="119.8"
   y2="64.5"
   id="line56" />
<line
   class="st3"
   x1="142.5"
   y1="79.8"
   x2="142.5"
   y2="64.5"
   id="line58" />
<path
   class="st3"
   d="M142.5,72.1c0,2.2-5.1,3.9-11.4,3.9s-11.4-1.8-11.4-3.9"
   id="path60" />
<line
   class="st4"
   x1="44.8"
   y1="7.9"
   x2="52.1"
   y2="13.3"
   id="line62" />
<line
   class="st4"
   x1="46.8"
   y1="20.5"
   x2="52.1"
   y2="13.3"
   id="line64" />
<path
   class="st3"
   d="M13,51.2c0-20.8,16.8-37.6,37.6-37.6c0,0,0,0,0,0"
   id="path66" />
<line
   class="st4"
   x1="135.3"
   y1="44.6"
   x2="129.9"
   y2="52"
   id="line68" />
<line
   class="st4"
   x1="122.7"
   y1="46.7"
   x2="129.9"
   y2="52"
   id="line70" />
<path
   class="st3"
   d="M91.9,12.9c20.8,0,37.6,16.8,37.6,37.6c0,0,0,0,0,0"
   id="path72" />
<line
   class="st4"
   x1="98.8"
   y1="136.7"
   x2="91.5"
   y2="131.4"
   id="line74" />
<line
   class="st4"
   x1="96.8"
   y1="124.2"
   x2="91.5"
   y2="131.4"
   id="line76" />
<path
   class="st3"
   d="M130.6,93.4c0,20.8-16.8,37.6-37.6,37.6c0,0,0,0,0,0"
   id="path78" />
<line
   class="st4"
   x1="8.3"
   y1="100"
   x2="13.7"
   y2="92.7"
   id="line80" />
<line
   class="st4"
   x1="20.9"
   y1="97.9"
   x2="13.7"
   y2="92.7"
   id="line82" />
<path
   class="st3"
   d="M51.7,131.8C30.9,131.8,14,115,14,94.2c0,0,0,0,0,0"
   id="path84" />
</svg>